<mxfile host="app.diagrams.net" modified="2023-04-30T16:31:47.522Z" agent="Mozilla/5.0 (Windows NT 10.0; Win64; x64) AppleWebKit/537.36 (KHTML, like Gecko) Chrome/112.0.0.0 Safari/537.36" version="21.2.3" etag="Ts-DSE6yWOKinSmqkTbq" type="github">
  <diagram name="Page-1" id="Ml_YAr-0DTs-IbJLzqcH">
    <mxGraphModel>
      <root>
        <mxCell id="0" />
        <mxCell id="1" parent="0" />
      </root>
    </mxGraphModel>
  </diagram>
</mxfile>
